<svg xmlns="http://www.w3.org/2000/svg" viewBox="0 0 199.983 201.438"><g data-name="Layer 2"><g data-name="ART"><path fill="#d09d2a" d="M178.11 103.531l-78.118 26.905-78.119-26.905 78.119-16.689 78.118 16.689z"/><path d="M99.992 131.535a1.1 1.1 0 01-.359-.06l-78.118-26.904a1.1 1.1 0 01.13-2.116l78.117-16.69a1.136 1.136 0 01.46 0l78.117 16.69a1.1 1.1 0 01.13 2.116l-78.119 26.905a1.1 1.1 0 01-.358.06zM25.974 103.78l74.018 25.492 74.017-25.492-74.017-15.813z" fill="#3e4147"/><path fill="#fdbe2a" d="M99.992 200.338L21.873 180.65v-77.119l78.119 16.214v80.593z"/><path d="M99.992 201.438a1.093 1.093 0 01-.269-.034l-78.118-19.688a1.099 1.099 0 01-.831-1.067v-77.118a1.1 1.1 0 01.405-.853 1.087 1.087 0 01.918-.224l78.118 16.214a1.1 1.1 0 01.876 1.077v80.593a1.098 1.098 0 01-1.1 1.1zm-77.019-21.646l75.92 19.134V120.64l-75.92-15.758z" fill="#3e4147"/><path fill="#d09d2a" d="M99.992 200.338l78.118-19.688v-77.119l-78.118 16.214v80.593z"/><path d="M99.992 201.438a1.098 1.098 0 01-1.1-1.1v-80.593a1.1 1.1 0 01.876-1.077l78.118-16.214a1.1 1.1 0 011.324 1.077v77.118a1.099 1.099 0 01-.832 1.067l-78.118 19.688a1.093 1.093 0 01-.268.034zm1.1-80.797v78.285l75.918-19.134v-74.91z" fill="#3e4147"/><path fill="#fdbe2a" d="M21.873 103.531L1.1 145.65l80.167 18.432 18.725-44.337-78.119-16.214z"/><path d="M81.266 165.183a1.12 1.12 0 01-.246-.029L.854 146.723a1.1 1.1 0 01-.74-1.559l20.773-42.12a1.091 1.091 0 011.21-.59l78.118 16.214a1.101 1.101 0 01.79 1.505L82.28 164.51a1.101 1.101 0 01-1.014.673zM2.702 144.89l77.91 17.913 17.846-42.253-75.974-15.769z" fill="#3e4147"/><path fill="#d09d2a" d="M178.11 103.531l20.773 42.119-80.166 18.432-18.725-44.337 78.118-16.214z"/><path d="M118.716 165.183a1.101 1.101 0 01-1.013-.673l-18.725-44.337a1.101 1.101 0 01.79-1.505l78.118-16.214a1.093 1.093 0 011.21.59l20.774 42.12a1.1 1.1 0 01-.74 1.559l-80.168 18.431a1.12 1.12 0 01-.246.029zm-17.19-44.633l17.845 42.253 77.91-17.913L177.5 104.78z" fill="#3e4147"/><circle cx="101.791" cy="56.211" r="55.111" fill="#eff6fb"/><path d="M101.79 112.422a56.21 56.21 0 1156.211-56.211 56.274 56.274 0 01-56.21 56.21zm0-110.223a54.012 54.012 0 1054.012 54.012 54.073 54.073 0 00-54.011-54.012z" fill="#3e4147"/><circle cx="101.791" cy="56.211" r="44.257" fill="#4495d7"/><path d="M101.79 101.567a45.356 45.356 0 1145.357-45.356 45.408 45.408 0 01-45.356 45.356zm0-88.513a43.157 43.157 0 1043.158 43.157 43.206 43.206 0 00-43.157-43.157z" fill="#3e4147"/><path d="M94.3 78.263l30.303-16.01a4.856 4.856 0 00.224-8.461L95.845 36.46a4.856 4.856 0 00-7.345 3.975l-1.32 33.342a4.856 4.856 0 007.12 4.486z" fill="#eff6fb"/><path d="M92.026 79.935a5.977 5.977 0 01-5.946-6.202l1.32-33.342a5.956 5.956 0 019.009-4.875l28.982 17.332a5.956 5.956 0 01-.274 10.378l-30.304 16.01a5.956 5.956 0 01-2.787.699zm1.328-43.068a3.765 3.765 0 00-3.754 3.61L88.28 73.822a3.755 3.755 0 005.507 3.469l30.303-16.01a3.755 3.755 0 00.173-6.544L95.28 37.404a3.74 3.74 0 00-1.926-.537z" fill="#3e4147"/></g></g></svg>
