<svg id="Layer_1" data-name="Layer 1" xmlns="http://www.w3.org/2000/svg" viewBox="0 0 348 304"><defs><style>.cls-1{fill:#ffd174;}.cls-2{fill:#fff;}.cls-3{fill:#e82429;}.cls-4{fill:#cc8c2a;}.cls-5{fill:#fab21f;}.cls-6{fill:#ab1f25;}.cls-7{fill:#503a17;}.cls-7,.cls-9{opacity:0.2;}.cls-7,.cls-8,.cls-9{isolation:isolate;}.cls-8{opacity:0.1;}.cls-10{fill:#e6262c;}.cls-11{fill:#2d8ecd;}.cls-12{fill:none;}</style></defs><path class="cls-1" d="M271.1,249.25a132,132,0,1,0-194.2,0Z"/><path class="cls-2" d="M212.11,105h0a44.66,44.66,0,0,1,7.81,8.94c6.34,10.19,5.28,23.8-.5,34.3s-15.64,18.23-26.2,23.91c-18.23,9.85-41.17,14.06-59.49,4.43a67.82,67.82,0,0,1-13.63-10c-5.23-4.76-10.22-10.18-12.53-16.88-2.4-7.11-1.52-14.87-.26-22.25,1.57-9.18,3.74-18.42,8.34-26.51A49.71,49.71,0,0,1,150,77.26c13.3-2.26,28.73,5.64,40.15,11.94A113.38,113.38,0,0,1,212.11,105Z"/><ellipse class="cls-3" cx="171.1" cy="119.21" rx="7.76" ry="5.22" transform="translate(21.92 264.91) rotate(-79.19)"/><path class="cls-3" d="M89.3,121.34c-11.27,20.77,3.88,29,3.88,29-.61-1.16-.3-7.11-.3-7.11,3.39,16.9,17.07,30.06,17.07,30.06-.83-2-1.93-12.27-1.93-12.27,2.37,11.45,15,20.76,15,20.76-1.47-1.61-3.12-11.71-3.12-11.71,4.77,9,10.58,14,14.56,16.54l.8.5h0c33.06,20.81,78.37-2.54,78.37-2.54a42.16,42.16,0,0,1-16.32,12.9c35.29-5.95,41.68-29.8,41.68-29.8-.33,5.83-5.24,18.41-5.24,18.41,13.9-12,14.95-39,15-42.87,2.58,4.62,1.71,15.21,1.71,15.21,11.83-18.65-9.27-46.4-9.27-46.4,5.64,3.42,14.32,17.22,14.32,17.22-3-14.69-19.86-28.39-19.86-28.39,3.23-4.87,5.92-9.29,8.16-13.3L230,89.06l-.15-1.2a82,82,0,0,0-9.52-12.2l-43.44,4.77c6.43,7.95,9.21,23.15,7.27,33.83-2.59,14.32-14.32,24.24-26.18,22.1s-19.38-15.51-16.79-29.86c1.42-7.84,6.05-17.06,11.9-23.47L141.6,84.28l-.89-8.41-16.83,1.79-.12-1.06-8.27.9-3.12,12.79A36.19,36.19,0,0,0,93.92,101c2.07-1.22,8.87-.55,8.87-.55C85.71,109.6,82.65,125.3,82.65,125.3A9.85,9.85,0,0,1,89.3,121.34Zm158.79,21.38v-.47a5.74,5.74,0,0,1,.35.47ZM134.32,107.6c-.8,4.22-3.75,7.16-6.57,6.65s-4.48-4.39-3.67-8.6,3.75-7.16,6.58-6.64S135.13,103.4,134.32,107.6Zm73.29,10.69c13.21-16.71,18,5.37,18,5.37l.19,3.45C219.19,106.65,207.61,118.29,207.61,118.29Zm-72.37,43.33a.8.8,0,0,1,1-.46c20.87,7.86,38.48,7.83,52.34-.08,21.56-12.29,26.63-39.8,26.68-40.08a.8.8,0,0,1,1.59.19s0,.06,0,.09c-.05.28-5.24,28.5-27.46,41.17a45.83,45.83,0,0,1-8.25,3.68c-12.79,4.22-28,3.07-45.45-3.48a.81.81,0,0,1-.46-1Zm.13-36.2c9.44,4.24-12.81,10.19-12.81,10.19s-4.78-6.9-6-12.92,9.33-1.5,18.77,2.76Z"/><path class="cls-4" d="M141.62,80.2s-26-59.6-52.43-6l3.27,3.91,23.11,5.59,12.9.56Z"/><path class="cls-5" d="M131.18,84.77l25.9,4.76,12.53-1,10.11-.81,29.07-13.89,5.37-2.56c2.29-7.66,4.61-15.56,5.62-23.48a53.16,53.16,0,0,0-.41-17.21A16.65,16.65,0,0,0,217,24.39,7.43,7.43,0,0,0,211.48,21c-2.63-.12-5,1.55-6.92,3.37-3.65,3.49-9.28,14.43-15.67,13-4.8-1.11-5.67-9-5.89-12.93-.34-6.17.53-16.24-6.11-19.65a9.51,9.51,0,0,0-8.4.29,21.3,21.3,0,0,0-6.63,5.57c-6.45,7.44-11,16.31-15.26,25.2q-2.68,5.54-5.14,11.23C136.24,59.15,132.07,71.7,131.18,84.77Z"/><path class="cls-6" d="M131.18,84.77l25.9,4.76,22.59-1.79,29.07-13.89a322.7,322.7,0,0,0-67.26-26.76C136.24,59.15,132.07,71.7,131.18,84.77Z"/><path class="cls-7" d="M164.18,86.54l5.37,2,10.11-.81,29.06-13.89,5.37-2.56c2.3-7.66,4.61-15.56,5.63-23.48C209.67,49.22,187.2,55.93,164.18,86.54Z"/><path class="cls-5" d="M89.18,79.33c-1.47-3.13.23-7.09,3.13-9s6.62-2,10-1.45c8.2,1.46,15,6.8,22.29,10.91,11.93,6.79,26.32,10.42,39.54,6.73,6-1.68,11.51-4.78,17.08-7.61A218.66,218.66,0,0,1,207.9,67.49c11.86-4.19,24.54-7.39,37-5.37s24.47,10.53,27.44,22.72a25.63,25.63,0,0,1-6.48,23.6Z"/><path class="cls-4" d="M168,36.46s11.36-1.17,7.2-16.72C175.17,19.74,177.93,29.46,168,36.46Z"/><path class="cls-8" d="M203.37,262.5a19,19,0,0,0-3.73-2.82,8.52,8.52,0,0,0,6-3.12,10.11,10.11,0,0,0,2.07-6.24,16.44,16.44,0,0,0-1.4-6.37,17.32,17.32,0,0,0-4.54-6.14,23,23,0,0,0-7.52-4.31,31.54,31.54,0,0,0-10.77-1.65,35.29,35.29,0,0,0-8.86,1.07,21.74,21.74,0,0,0-7.83,3.71,18.35,18.35,0,0,0-4.61,5.16v-.25a9,9,0,0,0-2.44-6.52c-1.66-1.71-4.12-2.58-7.32-2.58-3.63,0-6.13.73-7.85,2.3a8.38,8.38,0,0,0-2.73,6.43V265.4c0,3.51-.59,6.17-1.7,7.69-.6.82-1.52,1.65-3.88,1.65-2.63,0-3.68-.89-4.31-1.68-.78-1-1.72-3.09-1.72-7.66V241.12A8.47,8.47,0,0,0,128,235c-2.27-2.26-5.64-2.52-8-2.52a18.83,18.83,0,0,0-4.37.42,8.49,8.49,0,0,0-3.92,2,7.29,7.29,0,0,0-2.14,3.73,13.22,13.22,0,0,0-.3,2.94v22.72c-.33-.87-.68-1.75-1-2.66-2-5.15-4.13-11-6.32-17.43-.59-1.69-1.12-3.1-1.63-4.32a14.48,14.48,0,0,0-2.43-4,9.8,9.8,0,0,0-4.15-2.75,14.55,14.55,0,0,0-4.77-.69,18.2,18.2,0,0,0-4.71.52,9.79,9.79,0,0,0-4.41,2.56,13.83,13.83,0,0,0-2.74,4.1c-.6,1.32-1.23,2.92-1.91,4.84-.39,1.08-1.07,2.9-2,5.47L70,258.64q-1.77,4.77-3.58,9.73c-1.2,3.27-2.27,6.13-3.16,8.5-.42,1.05-.75,1.9-1,2.55s-.46,1.33-.6,1.8-.28,1-.38,1.52a9.34,9.34,0,0,0-.14,1.67,7,7,0,0,0,3,5.88,10.42,10.42,0,0,0,6.29,1.6,16.27,16.27,0,0,0,3.62-.34A8.66,8.66,0,0,0,77.34,290a7.88,7.88,0,0,0,2.28-2.75,16.87,16.87,0,0,0,.87-2.12L82.9,278H93l.42,1.12,1,2.55c.33.93.67,1.82,1,2.67s.64,1.58.85,2.06a11.89,11.89,0,0,0,1.12,2,7.35,7.35,0,0,0,2.59,2.24,10.12,10.12,0,0,0,2.94,1,20,20,0,0,0,3.46.26,15.07,15.07,0,0,0,3.84-.41,8.53,8.53,0,0,0,3.27-1.56,6.62,6.62,0,0,0,2.26-3.29,10.47,10.47,0,0,0,.25-1.24,21.76,21.76,0,0,0,8.17,5.68,30.58,30.58,0,0,0,11.43,2,31.91,31.91,0,0,0,12-2,21.19,21.19,0,0,0,8.59-6.22,22.87,22.87,0,0,0,2.94-4.76c.17.39.33.77.53,1.16a19.06,19.06,0,0,0,5,6.07,27.19,27.19,0,0,0,7.81,4.29,31.76,31.76,0,0,0,10.89,1.72,36.21,36.21,0,0,0,10.15-1.3,24.14,24.14,0,0,0,7.73-3.72,16.5,16.5,0,0,0,5.12-6.12,17.11,17.11,0,0,0,1.66-7.41,20.93,20.93,0,0,0-.9-6.14A14.39,14.39,0,0,0,203.37,262.5Z"/><circle class="cls-9" cx="251.74" cy="262.88" r="30.44" transform="translate(-106.19 196.82) rotate(-35.78)"/><circle class="cls-2" cx="255.91" cy="258.32" r="30.97"/><g id="rect8767"><path class="cls-10" d="M269.68,281.46a27,27,0,0,1-27.54,0Z"/></g><path class="cls-2" d="M236.46,276.93h38.9a27,27,0,0,1-5.68,4.53H242.14A27,27,0,0,1,236.46,276.93Z"/><path class="cls-10" d="M233,272.4h45.9a25.24,25.24,0,0,1-3.5,4.53H236.5A25.24,25.24,0,0,1,233,272.4Z"/><path class="cls-2" d="M230.73,267.87h50.36a26.09,26.09,0,0,1-2.23,4.53H233A26.27,26.27,0,0,1,230.73,267.87Z"/><path class="cls-10" d="M229.52,263.63H282.3a25,25,0,0,1-1.21,4.24H230.73A25,25,0,0,1,229.52,263.63Z"/><path class="cls-2" d="M282.81,259.38a27.55,27.55,0,0,1-.51,4.25H229.52a27.55,27.55,0,0,1-.51-4.25Z"/><path class="cls-10" d="M282.64,255.14a26.09,26.09,0,0,1,.19,3.18v1.06H229v-1.06a26.09,26.09,0,0,1,.19-3.18Z"/><path class="cls-2" d="M282.64,255.14H229.18v-.3a23.64,23.64,0,0,1,.56-3c.07-.32.16-.63.25-.94h51.76A26.63,26.63,0,0,1,282.64,255.14Z"/><path class="cls-10" d="M281.79,250.9H230c.17-.62.37-1.23.59-1.83l.12-.32q.31-.84.69-1.65h0l.19-.41h48.54A27.28,27.28,0,0,1,281.79,250.9Z"/><path class="cls-2" d="M280.18,246.65H231.64a20.19,20.19,0,0,1,1-1.83c.31-.56.65-1.1,1-1.63l.56-.78h43.44A26,26,0,0,1,280.18,246.65Z"/><path class="cls-10" d="M277.63,242.41H234.19c.3-.41.61-.82.93-1.21h.07a27.58,27.58,0,0,1,2.92-3h35.68A26,26,0,0,1,277.63,242.41Z"/><path class="cls-2" d="M267.29,233.92a26.43,26.43,0,0,1,6.46,4.24H238.07a26.27,26.27,0,0,1,6-4l.09-.23Z"/><g id="rect8793"><polygon class="cls-10" points="244.16 233.87 244.18 233.92 244.13 233.92 244.16 233.87"/><path class="cls-10" d="M267.29,233.92H244.53a23,23,0,0,1,2.24-.93c.76-.28,1.53-.52,2.32-.73a26.77,26.77,0,0,1,5.56-.83,4.86,4.86,0,0,1,.54,0h.72a24.19,24.19,0,0,1,2.55.13A26.06,26.06,0,0,1,267.29,233.92Z"/></g><g id="layer5"><g id="rect8796"><path class="cls-11" d="M258.46,231.52v27.86H229v-1.06a26.09,26.09,0,0,1,.19-3.18v-.3a23.64,23.64,0,0,1,.56-3c.07-.32.16-.63.25-.94.17-.62.37-1.23.59-1.83l.12-.32q.31-.84.69-1.65h0l.19-.41a20.19,20.19,0,0,1,1-1.83c.31-.56.65-1.1,1-1.63l.56-.78c.3-.41.61-.82.93-1.21h.07a27.58,27.58,0,0,1,2.92-3,26.27,26.27,0,0,1,6-4l.09-.23h.35a23,23,0,0,1,2.24-.93c.76-.28,1.53-.52,2.32-.73a26.77,26.77,0,0,1,5.56-.83,4.86,4.86,0,0,1,.54,0h.72A22,22,0,0,1,258.46,231.52Z"/></g></g><g id="layer6"><g id="path8829"><path class="cls-2" d="M231.68,255.88l1.24-.13.48-1.22.51,1.2,1.25.1-.94.88.3,1.27-1.09-.66-1.06.69.26-1.28Z"/></g><g id="path8831"><path class="cls-2" d="M238.75,255.88l1.25-.13.47-1.22.51,1.2,1.25.1-.93.88.29,1.27-1.08-.66-1.07.69.27-1.28Z"/></g><g id="path8833"><path class="cls-2" d="M245.82,255.88l1.25-.13.48-1.22.5,1.2,1.25.1-.93.88.3,1.27-1.09-.66-1.06.69.26-1.28Z"/></g><g id="path8835"><path class="cls-2" d="M253.18,255.88l1.25-.13.47-1.22.51,1.2,1.25.1-.93.88L256,258l-1.09-.66-1.07.69.27-1.28Z"/></g><g id="path8853"><path class="cls-2" d="M230.55,253.88l.3,1.26h0l-1.07-.65-.54.35a23.64,23.64,0,0,1,.56-3l.45,1.06,1.25.1Z"/></g><g id="path8857"><path class="cls-2" d="M230.74,248.75l.11.46-.23-.14Z"/></g><g id="path8869"><path class="cls-2" d="M235.07,253.05l1.25-.13.47-1.22.51,1.2,1.25.1-.93.88.3,1.27-1.09-.66-1.07.69.27-1.28Z"/></g><g id="path8871"><path class="cls-2" d="M231.68,249.94l1.24-.14.48-1.21.51,1.2,1.25.1-.94.87.3,1.28-1.09-.66-1.06.69.26-1.28Z"/></g><g id="path8873"><path class="cls-2" d="M245.82,249.94l1.25-.14.48-1.21.5,1.2,1.25.1-.93.87.3,1.28-1.09-.66-1.06.69.26-1.28Z"/></g><g id="path8875"><path class="cls-2" d="M238.75,249.94l1.25-.14.47-1.21.51,1.2,1.25.1-.93.87.29,1.28-1.08-.66-1.07.69.27-1.28Z"/></g><g id="path8877"><path class="cls-2" d="M249.5,253.05l1.25-.13.48-1.22.5,1.2,1.25.1-.93.88.3,1.27-1.09-.66-1.06.69.26-1.28Z"/></g><g id="path8879"><path class="cls-2" d="M242.43,253.05l1.25-.13.47-1.22.51,1.2,1.25.1-.93.88.29,1.27-1.08-.66-1.07.69.26-1.28Z"/></g><g id="path8887"><polygon class="cls-2" points="237.72 242.41 237.91 243.27 236.84 242.61 235.76 243.3 235.94 242.41 236.03 242.01 235.12 241.2 235.07 241.17 235.15 241.16 236.31 241.03 236.79 239.82 237.31 241.02 238.56 241.12 237.62 241.99 237.72 242.41"/></g><g id="path8889"><path class="cls-2" d="M234.23,244.82l.29,1.28-1.08-.66-1.07.69.27-1.29h0c.31-.56.65-1.1,1-1.63l.28.66,1.25.1Z"/></g><g id="path8891"><path class="cls-2" d="M235.07,247.11l1.25-.14.47-1.21.51,1.2,1.25.1-.93.87.3,1.28-1.09-.66-1.07.69L236,248Z"/></g><g id="path8893"><path class="cls-2" d="M253.18,249.94l1.25-.14.47-1.21.51,1.2,1.25.1-.93.87L256,252l-1.09-.66-1.07.69.27-1.28Z"/></g><g id="path8895"><path class="cls-2" d="M238.75,244l1.25-.14.47-1.21.51,1.2,1.25.1-.93.87.29,1.28-1.08-.66-1.07.69.27-1.29Z"/></g><g id="path8899"><path class="cls-2" d="M238.75,238.05l1.25-.13.47-1.22.51,1.2,1.25.1-.93.88.29,1.27-1.08-.65-1.07.69.27-1.29Z"/></g><g id="path8901"><path class="cls-2" d="M249.5,247.11l1.25-.14.48-1.21.5,1.2,1.25.1-.93.87.3,1.28-1.09-.66-1.06.69.26-1.28Z"/></g><g id="path8903"><path class="cls-2" d="M242.43,247.11l1.25-.14.47-1.21.51,1.2,1.25.1-.93.87.29,1.28-1.08-.66-1.07.69.26-1.28Z"/></g><g id="path8905"><polygon class="cls-2" points="244.97 236.05 245.28 237.32 244.19 236.67 243.13 237.36 243.38 236.07 242.43 235.22 243.68 235.09 244.04 234.15 244.13 233.92 244.16 233.87 244.18 233.92 244.24 234.05 244.66 235.07 245.91 235.17 244.97 236.05"/></g><g id="path8907"><path class="cls-2" d="M242.43,241.17l1.25-.14.47-1.21.51,1.2,1.25.1L245,242l.29,1.28-1.08-.66-1.07.69.26-1.29Z"/></g><g id="path8909"><path class="cls-2" d="M253.18,244l1.25-.14.47-1.21.51,1.2,1.25.1-.93.87.3,1.28-1.09-.66-1.07.69.27-1.29Z"/></g><g id="path8911"><path class="cls-2" d="M245.82,244l1.25-.14.48-1.21.5,1.2,1.25.1-.93.87.3,1.28-1.09-.66-1.06.69.26-1.29Z"/></g><g id="path8913"><path class="cls-2" d="M248.6,233.92l.07.29-.47-.29-.61-.37-.57.37-.5.32.07-.32.18-.93c.76-.28,1.53-.52,2.32-.73l-.71.68Z"/></g><g id="path8915"><path class="cls-2" d="M245.82,238.05l1.25-.13.48-1.22.5,1.2,1.25.1-.93.88.3,1.27-1.09-.65-1.06.69.26-1.29Z"/></g><g id="path8917"><path class="cls-2" d="M256,233.92l.07.29-.47-.29-.61-.37-.57.37-.5.32.07-.32.19-1-1-.85,1.24-.13.22-.55h.54l.23.55,1.25.1-.94.88Z"/></g><g id="path8919"><path class="cls-2" d="M249.5,235.22l1.25-.13.48-1.21.5,1.19,1.25.1-.93.88.3,1.27-1.09-.65-1.06.69.26-1.29Z"/></g><g id="path8921"><path class="cls-2" d="M253.18,238.05l1.25-.13.47-1.22.51,1.2,1.25.1-.93.88.3,1.27-1.09-.65-1.07.69.27-1.29Z"/></g><g id="path8923"><path class="cls-2" d="M249.5,241.17l1.25-.14.48-1.21.5,1.2,1.25.1-.93.87.3,1.28-1.09-.66-1.06.69.26-1.29Z"/></g></g><g id="SVGID"><path class="cls-12" d="M282.83,258.32v1.06a27.55,27.55,0,0,1-.51,4.25,25,25,0,0,1-1.21,4.24,26.09,26.09,0,0,1-2.23,4.53,25.24,25.24,0,0,1-3.5,4.53,26.89,26.89,0,0,1-38,.88l-.88-.88a25.24,25.24,0,0,1-3.5-4.53,26.09,26.09,0,0,1-2.23-4.53,25,25,0,0,1-1.21-4.24,27.55,27.55,0,0,1-.51-4.25v-1.06a26.09,26.09,0,0,1,.19-3.18v-.3a23.64,23.64,0,0,1,.56-3c.07-.32.16-.63.25-.94.17-.62.37-1.23.59-1.83l.12-.32q.31-.84.69-1.65h0l.19-.41a20.19,20.19,0,0,1,1-1.83c.31-.56.65-1.1,1-1.63l.56-.78c.3-.41.61-.82.93-1.21h0a27.58,27.58,0,0,1,2.92-3,26.27,26.27,0,0,1,6-4l.19-.1.29-.13a23,23,0,0,1,2.24-.93c.76-.28,1.53-.52,2.32-.73a26.77,26.77,0,0,1,5.56-.83,4.86,4.86,0,0,1,.54,0h.72a24.19,24.19,0,0,1,2.55.13,27,27,0,0,1,21.72,15.13,27.92,27.92,0,0,1,1.61,4.25,28.61,28.61,0,0,1,1.06,7.29Z"/></g><path class="cls-2" d="M206.37,259.5a19,19,0,0,0-3.73-2.82,8.52,8.52,0,0,0,6-3.12,10.11,10.11,0,0,0,2.07-6.24,16.44,16.44,0,0,0-1.4-6.37,17.32,17.32,0,0,0-4.54-6.14,23,23,0,0,0-7.52-4.31,31.54,31.54,0,0,0-10.77-1.65,35.29,35.29,0,0,0-8.86,1.07,21.74,21.74,0,0,0-7.83,3.71,18.35,18.35,0,0,0-4.61,5.16v-.25a9,9,0,0,0-2.44-6.52c-1.66-1.71-4.12-2.58-7.32-2.58-3.63,0-6.13.73-7.85,2.3a8.38,8.38,0,0,0-2.73,6.43V262.4c0,3.51-.59,6.17-1.7,7.69-.6.82-1.52,1.65-3.88,1.65-2.63,0-3.68-.89-4.31-1.68-.78-1-1.72-3.09-1.72-7.66V238.12A8.47,8.47,0,0,0,131,232c-2.27-2.26-5.64-2.52-8-2.52a18.83,18.83,0,0,0-4.37.42,8.49,8.49,0,0,0-3.92,2,7.29,7.29,0,0,0-2.14,3.73,13.22,13.22,0,0,0-.3,2.94v22.72c-.33-.87-.68-1.75-1-2.66-2-5.15-4.13-11-6.32-17.43-.59-1.69-1.12-3.1-1.63-4.32a14.48,14.48,0,0,0-2.43-4,9.8,9.8,0,0,0-4.15-2.75,14.55,14.55,0,0,0-4.77-.69,18.2,18.2,0,0,0-4.71.52,9.79,9.79,0,0,0-4.41,2.56,13.83,13.83,0,0,0-2.74,4.1c-.6,1.31-1.23,2.92-1.91,4.84-.39,1.08-1.07,2.9-2,5.47L73,255.64q-1.77,4.77-3.58,9.73c-1.2,3.27-2.27,6.13-3.16,8.5-.42,1.05-.75,1.9-1,2.55s-.46,1.33-.6,1.8-.28,1-.38,1.52a9.34,9.34,0,0,0-.14,1.67,7,7,0,0,0,3,5.88,10.42,10.42,0,0,0,6.29,1.6,16.27,16.27,0,0,0,3.62-.34A8.81,8.81,0,0,0,80.34,287a7.88,7.88,0,0,0,2.28-2.75,16.87,16.87,0,0,0,.87-2.12L85.9,275H96c.13.36.27.74.42,1.13l1,2.55c.33.93.67,1.82,1,2.67s.64,1.58.85,2.06a11.89,11.89,0,0,0,1.12,2,7.35,7.35,0,0,0,2.59,2.24,10.12,10.12,0,0,0,2.94,1,20,20,0,0,0,3.46.26,15.07,15.07,0,0,0,3.84-.41,8.53,8.53,0,0,0,3.27-1.56,6.62,6.62,0,0,0,2.26-3.29,10.47,10.47,0,0,0,.25-1.24,21.76,21.76,0,0,0,8.17,5.68,30.58,30.58,0,0,0,11.43,2,31.91,31.91,0,0,0,12-2,21.19,21.19,0,0,0,8.59-6.22,22.87,22.87,0,0,0,2.94-4.76c.17.39.33.77.53,1.16a19.06,19.06,0,0,0,5,6.07,27.19,27.19,0,0,0,7.81,4.29,31.76,31.76,0,0,0,10.89,1.72,36.21,36.21,0,0,0,10.15-1.3,24.14,24.14,0,0,0,7.73-3.72,16.75,16.75,0,0,0,5.12-6.12A17.11,17.11,0,0,0,211,271.8a20.93,20.93,0,0,0-.9-6.14A14.23,14.23,0,0,0,206.37,259.5Z"/><path class="cls-3" d="M84.81,270.42a3.18,3.18,0,0,0-2,.44A2.33,2.33,0,0,0,82,272l-3,8.7a12.27,12.27,0,0,1-.63,1.55,3.14,3.14,0,0,1-1,1.14,4,4,0,0,1-1.58.7,11.83,11.83,0,0,1-2.59.23,6.47,6.47,0,0,1-3.61-.74,2.46,2.46,0,0,1-1-2.14,4.88,4.88,0,0,1,.07-.85,8.64,8.64,0,0,1,.26-1c.12-.42.29-.94.51-1.55s.53-1.42.93-2.4q1.39-3.69,3.21-8.63l3.57-9.7,3.21-8.64q1.44-3.87,2-5.49,1-2.73,1.77-4.5A9.61,9.61,0,0,1,86,235.88a5.17,5.17,0,0,1,2.36-1.37,13.82,13.82,0,0,1,3.51-.36,10.39,10.39,0,0,1,3.28.44A5.18,5.18,0,0,1,97.46,236a9.54,9.54,0,0,1,1.63,2.7c.46,1.1,1,2.44,1.51,4q3.32,9.74,6.38,17.6t5.13,13.24c.83,2.26,1.44,4,1.81,5.09a9.69,9.69,0,0,1,.55,2.66,3.37,3.37,0,0,1-.15,1,2,2,0,0,1-.7,1,4,4,0,0,1-1.55.7,11.58,11.58,0,0,1-2.69.26,15.33,15.33,0,0,1-2.62-.19,5.77,5.77,0,0,1-1.62-.51,3.15,3.15,0,0,1-1-.85,6.48,6.48,0,0,1-.66-1.18c-.2-.45-.46-1.07-.78-1.88s-.64-1.67-1-2.55-.65-1.77-1-2.66-.62-1.67-.82-2.36a2.34,2.34,0,0,0-.92-1.4,5.55,5.55,0,0,0-2.25-.29Zm10.92-7a.87.87,0,0,0,1-1,8.14,8.14,0,0,0-.51-2.18c-.35-1-.91-2.54-1.7-4.61l-2.21-6c-.3-.89-.69-1.33-1.19-1.33a.88.88,0,0,0-.73.37,2.51,2.51,0,0,0-.45,1q-.43,1.26-.84,2.4c-.28.76-.66,1.88-1.15,3.35s-.88,2.72-1.18,3.58-.51,1.54-.66,2-.25.84-.3,1a2.46,2.46,0,0,0-.07.6q0,.81,1.11.81Z"/><path class="cls-3" d="M116.9,238.62a8.87,8.87,0,0,1,.19-1.92,2.66,2.66,0,0,1,.81-1.4,4,4,0,0,1,1.84-.89,14.55,14.55,0,0,1,3.29-.29c2.36,0,3.93.39,4.72,1.18a3.87,3.87,0,0,1,1.18,2.87v24.3q0,7.15,2.73,10.55t7.9,3.39a8.85,8.85,0,0,0,7.6-3.54q2.58-3.54,2.58-10.4V238.22a3.89,3.89,0,0,1,1.22-3c.81-.74,2.4-1.11,4.76-1.11,1.92,0,3.26.4,4,1.18a4.64,4.64,0,0,1,1.14,3.32v22.51a41.25,41.25,0,0,1-1.15,10.14A19.54,19.54,0,0,1,156,279a16.55,16.55,0,0,1-6.75,4.87,27.35,27.35,0,0,1-10.29,1.7,26,26,0,0,1-9.71-1.66,17,17,0,0,1-6.75-4.8,20.29,20.29,0,0,1-3.94-7.56,35.17,35.17,0,0,1-1.3-10Z"/><path class="cls-3" d="M169.8,266.73a4.63,4.63,0,0,1,2.73.73,9.06,9.06,0,0,1,1.92,1.89c.59.76,1.2,1.57,1.81,2.43a13.42,13.42,0,0,0,2.32,2.44,11.43,11.43,0,0,0,3.55,1.88,16.82,16.82,0,0,0,5.46.73c2.95,0,5-.41,6.19-1.25a4,4,0,0,0,1.77-3.39,5.69,5.69,0,0,0-.48-2.44,4.69,4.69,0,0,0-1.95-1.92,22.15,22.15,0,0,0-4.13-1.77c-1.77-.59-4.14-1.23-7.09-1.92a32.29,32.29,0,0,1-7.3-2.5,17,17,0,0,1-4.61-3.32,10.18,10.18,0,0,1-2.4-4,15.36,15.36,0,0,1-.66-4.57,16.62,16.62,0,0,1,1.51-7.38,14.09,14.09,0,0,1,4.13-5.09,17.24,17.24,0,0,1,6.2-2.92,30.81,30.81,0,0,1,7.71-.92,26.8,26.8,0,0,1,9.19,1.37,18.63,18.63,0,0,1,6.05,3.43,12.71,12.71,0,0,1,3.35,4.5,11.6,11.6,0,0,1,1,4.57,5.42,5.42,0,0,1-1.11,3.43c-.74,1-2.14,1.44-4.21,1.44a4.8,4.8,0,0,1-3.46-1.14,7.57,7.57,0,0,1-1.78-2.62,17.17,17.17,0,0,0-1.43-2.8,7.35,7.35,0,0,0-1.89-2,7.54,7.54,0,0,0-2.69-1.14,17.46,17.46,0,0,0-3.95-.37q-4,0-5.94,1.66a5.63,5.63,0,0,0-2,4.53,8.41,8.41,0,0,0,.37,2.59,5.31,5.31,0,0,0,1.51,2.25,10.68,10.68,0,0,0,3.36,2,35.73,35.73,0,0,0,6,1.63,43,43,0,0,1,8.89,2.62,17.74,17.74,0,0,1,5.35,3.39,9.93,9.93,0,0,1,2.62,4.17,16.19,16.19,0,0,1,.7,4.79,12.45,12.45,0,0,1-1.21,5.43,11.9,11.9,0,0,1-3.73,4.42,19.51,19.51,0,0,1-6.27,3,31.46,31.46,0,0,1-8.85,1.11,27,27,0,0,1-9.3-1.44,22.4,22.4,0,0,1-6.49-3.54,14.25,14.25,0,0,1-3.84-4.58,10,10,0,0,1-1.25-4.53Q165.53,266.73,169.8,266.73Z"/><path class="cls-3" d="M133.78,222.71a9.62,9.62,0,0,1-3.94-.75,7.82,7.82,0,0,1-2.82-2.09,9,9,0,0,1-1.69-3.1,12.34,12.34,0,0,1-.57-3.8,12.65,12.65,0,0,1,.28-2.71,7.86,7.86,0,0,1,1-2.52,10.84,10.84,0,0,1,1.4-1.84,7,7,0,0,1,1.72-1.3,8,8,0,0,1,2.14-.76,13.34,13.34,0,0,1,2.64-.24,10.57,10.57,0,0,1,3.71.62,7.49,7.49,0,0,1,2.8,1.83,7.88,7.88,0,0,1,1.76,3,12.34,12.34,0,0,1,.61,4.06,12.87,12.87,0,0,1-.51,3.62,8.77,8.77,0,0,1-1.61,3.09,7.8,7.8,0,0,1-2.82,2.13A9.66,9.66,0,0,1,133.78,222.71Zm.16-3.46a4.39,4.39,0,0,0,3.75-1.64,7.25,7.25,0,0,0,1.23-4.45,8.29,8.29,0,0,0-.3-2.24,5.41,5.41,0,0,0-.92-1.88,4.64,4.64,0,0,0-1.57-1.3,4.84,4.84,0,0,0-2.22-.49,5.32,5.32,0,0,0-2.25.46,3.91,3.91,0,0,0-1.57,1.33c-.16.23-.3.47-.43.7a4.82,4.82,0,0,0-.34.82,6.45,6.45,0,0,0-.23,1.09,13.36,13.36,0,0,0-.08,1.53,6.93,6.93,0,0,0,1.29,4.5A4.45,4.45,0,0,0,133.94,219.25Z"/><path class="cls-3" d="M147.07,222.2a1.42,1.42,0,0,1-1-.35,1.21,1.21,0,0,1-.38-.92v-.67c0-.35,0-.77,0-1.27s0-1.05,0-1.65,0-1.21,0-1.8,0-1.17,0-1.71v-1.38c0-.56,0-1.18,0-1.87s0-1.33,0-1.93,0-1.13,0-1.56,0-.69,0-.78a2.88,2.88,0,0,1,.47-1.76,2.19,2.19,0,0,1,1.83-.63,3.35,3.35,0,0,1,1.08.15,2.46,2.46,0,0,1,.75.41,2.69,2.69,0,0,1,.55.61,7.68,7.68,0,0,1,.49.76c.11.19.32.55.65,1.07s.7,1.12,1.12,1.82.88,1.46,1.37,2.25.95,1.57,1.38,2.33l1,1.68.58,1a3.31,3.31,0,0,0,.31.5c.07.09.14.14.19.14s.19-.11.19-.33,0-.85,0-1.85-.06-2.23-.06-3.7c0-1.08,0-1.91,0-2.49s0-1,0-1.35,0-.59,0-.8,0-.48,0-.83a1.37,1.37,0,0,1,.32-1,1.5,1.5,0,0,1,1.09-.34h.73a1.54,1.54,0,0,1,1,.3,1.24,1.24,0,0,1,.37,1v14.4a2.74,2.74,0,0,1-.54,1.83,2.57,2.57,0,0,1-2,.64,2.62,2.62,0,0,1-1.84-.61A6.42,6.42,0,0,1,155.3,220c-.14-.24-.39-.64-.73-1.22l-1.14-1.93-1.26-2.13c-.42-.73-.78-1.35-1.07-1.87-.41-.74-.73-1.34-1-1.79l-.51-1a4.42,4.42,0,0,0-.26-.49.23.23,0,0,0-.19-.12c-.09,0-.13.09-.13.27s0,.76,0,1.68,0,2.08,0,3.49v1c0,.54,0,1.14,0,1.79s0,1.28,0,1.89v1.36a1.06,1.06,0,0,1-.46,1,2,2,0,0,1-1.13.3Z"/><path class="cls-3" d="M174.9,218.87a1.31,1.31,0,0,1,.9.31,1.94,1.94,0,0,1,.35,1.39,3.63,3.63,0,0,1-.1,1,.92.92,0,0,1-.28.51.94.94,0,0,1-.45.21,5,5,0,0,1-.61,0l-1.09,0h-5.68l-1.38,0h-.84a1.72,1.72,0,0,1-1.24-.38,1.63,1.63,0,0,1-.38-1.19c0-.17,0-.56,0-1.19s0-1.36,0-2.17,0-1.66,0-2.53,0-1.64,0-2.29,0-1.36,0-2.13,0-1.5,0-2.2,0-1.33,0-1.87,0-.92,0-1.14a1.28,1.28,0,0,1,.43-1.07,2.91,2.91,0,0,1,1.65-.33,3.25,3.25,0,0,1,1.68.29,1.33,1.33,0,0,1,.43,1.17c0,.2,0,.62,0,1.27s0,1.41,0,2.29,0,1.8,0,2.79,0,1.9,0,2.76,0,1.59,0,2.22,0,1,0,1.15a1.35,1.35,0,0,0,.21.91,1.62,1.62,0,0,0,1,.2Z"/><path class="cls-3" d="M179.42,222.17a1.31,1.31,0,0,1-1.09-.39,1.57,1.57,0,0,1-.31-1s0-.19,0-.4,0-.57,0-1.06,0-1.15,0-2,0-1.91,0-3.21q0-3.71,0-5.82V205.2c0-.89.51-1.33,1.52-1.33h1a1.26,1.26,0,0,1,1,.34,1.43,1.43,0,0,1,.3,1v5c0,.8,0,1.72,0,2.78s0,2.09,0,3.11,0,1.95,0,2.78,0,1.4,0,1.73a1.61,1.61,0,0,1-.36,1.19,1.5,1.5,0,0,1-1.05.35Z"/><path class="cls-3" d="M186.6,222.2a1.42,1.42,0,0,1-1-.35,1.18,1.18,0,0,1-.38-.92v-.67c0-.35,0-.77,0-1.27s0-1.05,0-1.65,0-1.21,0-1.8,0-1.17,0-1.71v-1.38c0-.56,0-1.18,0-1.87s0-1.33,0-1.93,0-1.13,0-1.56,0-.69,0-.78a2.88,2.88,0,0,1,.47-1.76,2.19,2.19,0,0,1,1.83-.63,3.35,3.35,0,0,1,1.08.15,2.46,2.46,0,0,1,.75.41,3,3,0,0,1,.55.61c.16.23.33.48.49.76s.32.55.65,1.07.7,1.12,1.12,1.82.88,1.46,1.37,2.25.95,1.57,1.38,2.33l1,1.68.58,1a3.31,3.31,0,0,0,.31.5c.07.09.13.14.19.14s.19-.11.19-.33,0-.85-.06-1.85,0-2.23,0-3.7c0-1.08,0-1.91,0-2.49s0-1,0-1.35,0-.59,0-.8,0-.48,0-.83a1.37,1.37,0,0,1,.32-1,1.5,1.5,0,0,1,1.09-.34h.73a1.54,1.54,0,0,1,1,.3,1.24,1.24,0,0,1,.37,1v14.4a2.74,2.74,0,0,1-.54,1.83,2.57,2.57,0,0,1-2,.64,2.62,2.62,0,0,1-1.84-.61,6.42,6.42,0,0,1-1.25-1.58c-.14-.24-.39-.64-.73-1.22L193,216.86l-1.26-2.13c-.42-.73-.78-1.35-1.07-1.87-.41-.74-.73-1.34-1-1.79s-.4-.8-.51-1-.21-.41-.26-.49a.23.23,0,0,0-.19-.12c-.09,0-.13.09-.13.27s0,.76,0,1.68,0,2.08,0,3.49v1c0,.54,0,1.14,0,1.79s0,1.28,0,1.89v1.36a1.06,1.06,0,0,1-.46,1,2,2,0,0,1-1.13.3Z"/><path class="cls-3" d="M208.26,214.94a.53.53,0,0,0-.5.21.89.89,0,0,0-.12.47c0,.16,0,.44,0,.83s0,.8,0,1.25a1,1,0,0,0,.34.9,1.93,1.93,0,0,0,1,.21h7.26a1.06,1.06,0,0,1,1,.38,2.85,2.85,0,0,1,.26,1.46,2.37,2.37,0,0,1-.23,1.2,1,1,0,0,1-.88.37h-1.72l-3.08,0h-1.85l-2,0h-2.64a2.43,2.43,0,0,1-.68-.08.94.94,0,0,1-.38-.25.79.79,0,0,1-.17-.37,2.35,2.35,0,0,1,0-.47c0-.16,0-.57,0-1.23s0-1.41,0-2.27,0-1.73,0-2.63,0-1.66,0-2.31,0-1.37,0-2.14,0-1.52,0-2.24,0-1.34,0-1.9,0-.95,0-1.17a1.54,1.54,0,0,1,.25-.95,1.5,1.5,0,0,1,1.15-.32h3.58l3.21,0c1,0,1.78,0,2.45,0l1.3,0a1.09,1.09,0,0,1,.89.35,2.18,2.18,0,0,1,.3,1.35,2,2,0,0,1-.33,1.3,1.33,1.33,0,0,1-1.11.41H215l-1.16,0-1.48,0-1.52,0-1.32,0h-.84a.79.79,0,0,0-.9.89v3a1.06,1.06,0,0,0,.18.68.93.93,0,0,0,.72.22h7a1.07,1.07,0,0,1,.88.31,1.86,1.86,0,0,1,.26,1.15,2,2,0,0,1-.22,1.08.89.89,0,0,1-.84.35Z"/></svg>